{
  "accessors": [
    {
      "bufferView": 2,
      "componentType": 5126,
      "count": 252,
      "max": [
        63.61096954345703,
        28.52651023864746,
        87.04346466064453
      ],
      "min": [
        -151.10479736328125,
        -28.526517868041992,
        -75.39498901367188
      ],
      "type": "VEC3"
    },
    {
      "bufferView": 2,
      "byteOffset": 3024,
      "componentType": 5126,
      "count": 252,
      "max": [
        0.9994902014732361,
        1.0,
        0.9639233350753784
      ],
      "min": [
        -0.995289146900177,
        -1.0,
        -0.9915043711662292
      ],
      "type": "VEC3"
    },
    {
      "bufferView": 3,
      "componentType": 5126,
      "count": 252,
      "max": [
        0.9469962120056152,
        0.9999759793281555,
        0.9998145699501038,
        1.0
      ],
      "min": [
        -0.9530539512634277,
        -0.9999924302101135,
        -0.9999147653579712,
        1.0
      ],
      "type": "VEC4"
    },
    {
      "bufferView": 1,
      "componentType": 5126,
      "count": 252,
      "max": [
        0.6884933710098267,
        0.8533258438110352
      ],
      "min": [
        0.0003979614411946386,
        0.0003979614411946386
      ],
      "type": "VEC2"
    },
    {
      "bufferView": 0,
      "componentType": 5125,
      "count": 696,
      "type": "SCALAR"
    },
    {
      "bufferView": 2,
      "byteOffset": 6048,
      "componentType": 5126,
      "count": 107,
      "max": [
        -93.03287506103516,
        24.067777633666992,
        190.86309814453125
      ],
      "min": [
        -153.0621795654297,
        -24.067800521850586,
        -62.537193298339844
      ],
      "type": "VEC3"
    },
    {
      "bufferView": 2,
      "byteOffset": 7332,
      "componentType": 5126,
      "count": 107,
      "max": [
        0.999699056148529,
        1.0,
        0.994586706161499
      ],
      "min": [
        -0.9945867657661438,
        -1.0,
        -0.994586706161499
      ],
      "type": "VEC3"
    },
    {
      "bufferView": 3,
      "byteOffset": 4032,
      "componentType": 5126,
      "count": 107,
      "max": [
        0.6203641891479492,
        0.9989838600158691,
        0.9998735189437866,
        1.0
      ],
      "min": [
        -0.994336724281311,
        -0.9647998809814453,
        -0.19314348697662354,
        1.0
      ],
      "type": "VEC4"
    },
    {
      "bufferView": 1,
      "byteOffset": 2016,
      "componentType": 5126,
      "count": 107,
      "max": [
        0.9689098000526428,
        0.9664987325668335
      ],
      "min": [
        0.0003979614411946386,
        0.4304736256599426
      ],
      "type": "VEC2"
    },
    {
      "bufferView": 0,
      "byteOffset": 2784,
      "componentType": 5125,
      "count": 444,
      "type": "SCALAR"
    },
    {
      "bufferView": 2,
      "byteOffset": 8616,
      "componentType": 5126,
      "count": 107,
      "max": [
        -57.6275520324707,
        24.067781448364258,
        204.1354217529297
      ],
      "min": [
        -108.4034423828125,
        -24.06779670715332,
        -49.122833251953125
      ],
      "type": "VEC3"
    },
    {
      "bufferView": 2,
      "byteOffset": 9900,
      "componentType": 5126,
      "count": 107,
      "max": [
        0.9999382495880127,
        1.0,
        0.9981734156608582
      ],
      "min": [
        -0.9981733560562134,
        -1.0,
        -0.9981733560562134
      ],
      "type": "VEC3"
    },
    {
      "bufferView": 3,
      "byteOffset": 5744,
      "componentType": 5126,
      "count": 107,
      "max": [
        0.5950550436973572,
        0.9969844818115234,
        0.9999700784683228,
        1.0
      ],
      "min": [
        -0.9981719851493835,
        -0.9737929105758667,
        -0.19191566109657288,
        1.0
      ],
      "type": "VEC4"
    },
    {
      "bufferView": 1,
      "byteOffset": 2872,
      "componentType": 5126,
      "count": 107,
      "max": [
        0.9942667484283447,
        0.9476462006568909
      ],
      "min": [
        0.1816301792860031,
        0.6837908625602722
      ],
      "type": "VEC2"
    },
    {
      "bufferView": 0,
      "byteOffset": 4560,
      "componentType": 5125,
      "count": 444,
      "type": "SCALAR"
    },
    {
      "bufferView": 2,
      "byteOffset": 11184,
      "componentType": 5126,
      "count": 107,
      "max": [
        -17.372432708740234,
        24.067785263061523,
        218.21913146972656
      ],
      "min": [
        -65.48106384277344,
        -24.067792892456055,
        -34.709869384765625
      ],
      "type": "VEC3"
    },
    {
      "bufferView": 2,
      "byteOffset": 12468,
      "componentType": 5126,
      "count": 107,
      "max": [
        0.9998741149902344,
        1.0,
        0.9994401931762695
      ],
      "min": [
        -0.9994401931762695,
        -1.0,
        -0.9994401931762695
      ],
      "type": "VEC3"
    },
    {
      "bufferView": 3,
      "byteOffset": 7456,
      "componentType": 5126,
      "count": 107,
      "max": [
        0.9233629107475281,
        0.9984840750694275,
        0.9998394250869751,
        1.0
      ],
      "min": [
        -0.9992441534996033,
        -0.9674996137619019,
        -0.21029603481292725,
        1.0
      ],
      "type": "VEC4"
    },
    {
      "bufferView": 1,
      "byteOffset": 3728,
      "componentType": 5126,
      "count": 107,
      "max": [
        0.9996017217636108,
        0.9355392456054688
      ],
      "min": [
        0.12801799178123474,
        0.0003979614411946386
      ],
      "type": "VEC2"
    },
    {
      "bufferView": 0,
      "byteOffset": 6336,
      "componentType": 5125,
      "count": 444,
      "type": "SCALAR"
    },
    {
      "bufferView": 2,
      "byteOffset": 13752,
      "componentType": 5126,
      "count": 107,
      "max": [
        24.06778907775879,
        24.06778907775879,
        227.66842651367188
      ],
      "min": [
        -24.06778907775879,
        -24.06778907775879,
        -24.596559524536133
      ],
      "type": "VEC3"
    },
    {
      "bufferView": 2,
      "byteOffset": 15036,
      "componentType": 5126,
      "count": 107,
      "max": [
        1.0,
        1.0,
        1.0
      ],
      "min": [
        -1.0,
        -1.0,
        -1.0
      ],
      "type": "VEC3"
    },
    {
      "bufferView": 3,
      "byteOffset": 9168,
      "componentType": 5126,
      "count": 107,
      "max": [
        0.558137059211731,
        0.9984844326972961,
        0.9999973177909851,
        1.0
      ],
      "min": [
        -0.999803900718689,
        -0.967499315738678,
        -0.21926359832286835,
        1.0
      ],
      "type": "VEC4"
    },
    {
      "bufferView": 1,
      "byteOffset": 4584,
      "componentType": 5126,
      "count": 107,
      "max": [
        0.9996019601821899,
        0.9650169610977173
      ],
      "min": [
        0.0003979614411946386,
        0.47795557975769043
      ],
      "type": "VEC2"
    },
    {
      "bufferView": 0,
      "byteOffset": 8112,
      "componentType": 5125,
      "count": 444,
      "type": "SCALAR"
    },
    {
      "bufferView": 2,
      "byteOffset": 16320,
      "componentType": 5126,
      "count": 107,
      "max": [
        63.618141174316406,
        24.067792892456055,
        236.0301971435547
      ],
      "min": [
        15.489686965942383,
        -24.067785263061523,
        -16.6115665435791
      ],
      "type": "VEC3"
    },
    {
      "bufferView": 2,
      "byteOffset": 17604,
      "componentType": 5126,
      "count": 107,
      "max": [
        0.9998520612716675,
        1.0,
        0.9998520612716675
      ],
      "min": [
        -0.9998520612716675,
        -1.0,
        -0.9998520016670227
      ],
      "type": "VEC3"
    },
    {
      "bufferView": 3,
      "byteOffset": 10880,
      "componentType": 5126,
      "count": 107,
      "max": [
        0.5472486019134521,
        0.9984843134880066,
        0.999849259853363,
        1.0
      ],
      "min": [
        -0.9996560215950012,
        -0.9675007462501526,
        -0.22377140820026398,
        1.0
      ],
      "type": "VEC4"
    },
    {
      "bufferView": 1,
      "byteOffset": 5440,
      "componentType": 5126,
      "count": 107,
      "max": [
        0.9996017217636108,
        0.9471362829208374
      ],
      "min": [
        0.0003979614411946386,
        0.23917682468891144
      ],
      "type": "VEC2"
    },
    {
      "bufferView": 0,
      "byteOffset": 9888,
      "componentType": 5125,
      "count": 444,
      "type": "SCALAR"
    }
  ],
  "asset": {
    "extras": {
      "author": "Vasikle (https://sketchfab.com/someobne)",
      "license": "CC-BY-4.0 (http://creativecommons.org/licenses/by/4.0/)",
      "source": "https://sketchfab.com/3d-models/8mm-mannlicher-enbloc-clip-7f9e032516e44b3180d0e4568ef884c3",
      "title": "8mm Mannlicher Enbloc Clip"
    },
    "generator": "Sketchfab-13.93.0",
    "version": "2.0"
  },
  "bufferViews": [
    {
      "buffer": 0,
      "byteLength": 11664,
      "name": "floatBufferViews",
      "target": 34963
    },
    {
      "buffer": 0,
      "byteLength": 6296,
      "byteOffset": 11664,
      "byteStride": 8,
      "name": "floatBufferViews",
      "target": 34962
    },
    {
      "buffer": 0,
      "byteLength": 18888,
      "byteOffset": 17960,
      "byteStride": 12,
      "name": "floatBufferViews",
      "target": 34962
    },
    {
      "buffer": 0,
      "byteLength": 12592,
      "byteOffset": 36848,
      "byteStride": 16,
      "name": "floatBufferViews",
      "target": 34962
    }
  ],
  "buffers": [
    {
      "byteLength": 49440,
      "uri": "scene.bin"
    }
  ],
  "images": [
    {
      "uri": "textures/8_50_mm_enbloc_baseColor.png"
    },
    {
      "uri": "textures/8_50_mm_enbloc_metallicRoughness.png"
    },
    {
      "uri": "textures/8_50_mm_enbloc_emissive.png"
    },
    {
      "uri": "textures/8_50_mm_enbloc_normal.png"
    }
  ],
  "materials": [
    {
      "doubleSided": true,
      "emissiveFactor": [
        1.0,
        1.0,
        1.0
      ],
      "emissiveTexture": {
        "index": 2
      },
      "name": "8_50_mm_enbloc",
      "normalTexture": {
        "index": 3
      },
      "occlusionTexture": {
        "index": 1,
        "strength": 0.8335263497945898
      },
      "pbrMetallicRoughness": {
        "baseColorTexture": {
          "index": 0
        },
        "metallicRoughnessTexture": {
          "index": 1
        }
      }
    }
  ],
  "meshes": [
    {
      "name": "enbloc_LP_8_50_mm_enbloc_0",
      "primitives": [
        {
          "attributes": {
            "NORMAL": 1,
            "POSITION": 0,
            "TANGENT": 2,
            "TEXCOORD_0": 3
          },
          "indices": 4,
          "material": 0,
          "mode": 4
        }
      ]
    },
    {
      "name": "8.50mm_LP_8_50_mm_enbloc_0",
      "primitives": [
        {
          "attributes": {
            "NORMAL": 6,
            "POSITION": 5,
            "TANGENT": 7,
            "TEXCOORD_0": 8
          },
          "indices": 9,
          "material": 0,
          "mode": 4
        }
      ]
    },
    {
      "name": "8.50mm1_LP_8_50_mm_enbloc_0",
      "primitives": [
        {
          "attributes": {
            "NORMAL": 11,
            "POSITION": 10,
            "TANGENT": 12,
            "TEXCOORD_0": 13
          },
          "indices": 14,
          "material": 0,
          "mode": 4
        }
      ]
    },
    {
      "name": "8.50mm2_LP_8_50_mm_enbloc_0",
      "primitives": [
        {
          "attributes": {
            "NORMAL": 16,
            "POSITION": 15,
            "TANGENT": 17,
            "TEXCOORD_0": 18
          },
          "indices": 19,
          "material": 0,
          "mode": 4
        }
      ]
    },
    {
      "name": "8.50mm3_LP_8_50_mm_enbloc_0",
      "primitives": [
        {
          "attributes": {
            "NORMAL": 21,
            "POSITION": 20,
            "TANGENT": 22,
            "TEXCOORD_0": 23
          },
          "indices": 24,
          "material": 0,
          "mode": 4
        }
      ]
    },
    {
      "name": "8.50mm4_LP_8_50_mm_enbloc_0",
      "primitives": [
        {
          "attributes": {
            "NORMAL": 26,
            "POSITION": 25,
            "TANGENT": 27,
            "TEXCOORD_0": 28
          },
          "indices": 29,
          "material": 0,
          "mode": 4
        }
      ]
    }
  ],
  "nodes": [
    {
      "children": [
        1
      ],
      "matrix": [
        1.0,
        0.0,
        0.0,
        0.0,
        0.0,
        2.220446049250313e-16,
        -1.0,
        0.0,
        0.0,
        1.0,
        2.220446049250313e-16,
        0.0,
        0.0,
        0.0,
        0.0,
        1.0
      ],
      "name": "Sketchfab_model"
    },
    {
      "children": [
        2
      ],
      "matrix": [
        0.009999999776482582,
        0.0,
        0.0,
        0.0,
        0.0,
        0.0,
        0.009999999776482582,
        0.0,
        0.0,
        -0.009999999776482582,
        0.0,
        0.0,
        0.0,
        0.0,
        0.0,
        1.0
      ],
      "name": "b8ed0b69c8454c749b091bad5b14bcc0.fbx"
    },
    {
      "children": [
        3,
        5,
        7,
        9,
        11,
        13
      ],
      "name": "RootNode"
    },
    {
      "children": [
        4
      ],
      "matrix": [
        0.037082552810867794,
        -0.010786940585180524,
        4.084917858015646e-09,
        0.0,
        2.164922980544176e-09,
        -7.182482191757371e-09,
        -0.03861959651112484,
        0.0,
        0.010786940585181079,
        0.03708255281086732,
        -6.291932115284632e-09,
        0.0,
        1.0888851881027222,
        -3.4783761501312256,
        -4.673506168728636e-07,
        1.0
      ],
      "name": "enbloc_LP"
    },
    {
      "mesh": 0,
      "name": "enbloc_LP_8_50_mm_enbloc_0"
    },
    {
      "children": [
        6
      ],
      "matrix": [
        0.037082552810867794,
        -0.010786940585180524,
        4.084917858015646e-09,
        0.0,
        2.164922980544176e-09,
        -7.182482191757371e-09,
        -0.03861959651112484,
        0.0,
        0.010786940585181079,
        0.03708255281086732,
        -6.291932115284632e-09,
        0.0,
        1.0888851881027222,
        -3.4783761501312256,
        -4.673506168728636e-07,
        1.0
      ],
      "name": "8.50mm_LP"
    },
    {
      "mesh": 1,
      "name": "8.50mm_LP_8_50_mm_enbloc_0"
    },
    {
      "children": [
        8
      ],
      "matrix": [
        0.037082552810867794,
        -0.010786940585180524,
        4.084917858015646e-09,
        0.0,
        2.164922980544176e-09,
        -7.182482191757371e-09,
        -0.03861959651112484,
        0.0,
        0.010786940585181079,
        0.03708255281086732,
        -6.291932115284632e-09,
        0.0,
        1.0888851881027222,
        -3.4783761501312256,
        -4.673506168728636e-07,
        1.0
      ],
      "name": "8.50mm1_LP"
    },
    {
      "mesh": 2,
      "name": "8.50mm1_LP_8_50_mm_enbloc_0"
    },
    {
      "children": [
        10
      ],
      "matrix": [
        0.037082552810867794,
        -0.010786940585180524,
        4.084917858015646e-09,
        0.0,
        2.164922980544176e-09,
        -7.182482191757371e-09,
        -0.03861959651112484,
        0.0,
        0.010786940585181079,
        0.03708255281086732,
        -6.291932115284632e-09,
        0.0,
        1.0888851881027222,
        -3.4783761501312256,
        -4.673506168728636e-07,
        1.0
      ],
      "name": "8.50mm2_LP"
    },
    {
      "mesh": 3,
      "name": "8.50mm2_LP_8_50_mm_enbloc_0"
    },
    {
      "children": [
        12
      ],
      "matrix": [
        0.037082552810867794,
        -0.010786940585180524,
        4.084917858015646e-09,
        0.0,
        2.164922980544176e-09,
        -7.182482191757371e-09,
        -0.03861959651112484,
        0.0,
        0.010786940585181079,
        0.03708255281086732,
        -6.291932115284632e-09,
        0.0,
        1.0888851881027222,
        -3.4783761501312256,
        -4.673506168728636e-07,
        1.0
      ],
      "name": "8.50mm3_LP"
    },
    {
      "mesh": 4,
      "name": "8.50mm3_LP_8_50_mm_enbloc_0"
    },
    {
      "children": [
        14
      ],
      "matrix": [
        0.037082552810867794,
        -0.010786940585180524,
        4.084917858015646e-09,
        0.0,
        2.164922980544176e-09,
        -7.182482191757371e-09,
        -0.03861959651112484,
        0.0,
        0.010786940585181079,
        0.03708255281086732,
        -6.291932115284632e-09,
        0.0,
        1.0888851881027222,
        -3.4783761501312256,
        -4.673506168728636e-07,
        1.0
      ],
      "name": "8.50mm4_LP"
    },
    {
      "mesh": 5,
      "name": "8.50mm4_LP_8_50_mm_enbloc_0"
    }
  ],
  "samplers": [
    {
      "magFilter": 9729,
      "minFilter": 9987,
      "wrapS": 10497,
      "wrapT": 10497
    }
  ],
  "scene": 0,
  "scenes": [
    {
      "name": "Sketchfab_Scene",
      "nodes": [
        0
      ]
    }
  ],
  "textures": [
    {
      "sampler": 0,
      "source": 0
    },
    {
      "sampler": 0,
      "source": 1
    },
    {
      "sampler": 0,
      "source": 2
    },
    {
      "sampler": 0,
      "source": 3
    }
  ]
}
